<svg viewBox="0 0 280 280" xmlns="http://www.w3.org/2000/svg" fill="none">

  <!-- Cloud shape -->
  <path d="M210 148c0-2-.1-4-.3-6a38 38 0 0 0-35.4-43.9A50 50 0 0 0 80 118a30 30 0 0 0 4 59.8H206a30 30 0 0 0 4-29.8z"
        fill="#FF9900" fill-opacity="0.12" stroke="#FF9900" stroke-width="1.8"/>

  <!-- EC2 block -->
  <rect x="96" y="126" width="36" height="36" rx="5"
        fill="#FFF3E0" stroke="#E07B00" stroke-width="1.4"/>
  <text x="114" y="139" font-family="monospace" font-size="7" fill="#E07B00" text-anchor="middle" font-weight="600">EC2</text>
  <rect x="103" y="143" width="22" height="3" rx="1.5" fill="#E07B00" fill-opacity="0.35"/>
  <rect x="103" y="149" width="16" height="3" rx="1.5" fill="#E07B00" fill-opacity="0.35"/>
  <rect x="103" y="155" width="19" height="3" rx="1.5" fill="#E07B00" fill-opacity="0.35"/>

  <!-- EBS block -->
  <rect x="144" y="126" width="36" height="36" rx="5"
        fill="#E8F5E9" stroke="#1D7324" stroke-width="1.4"/>
  <text x="162" y="139" font-family="monospace" font-size="7" fill="#1D7324" text-anchor="middle" font-weight="600">EBS</text>
  <ellipse cx="162" cy="150" rx="10" ry="4" fill="none" stroke="#1D7324" stroke-width="1.2" stroke-opacity="0.6"/>
  <line x1="152" y1="150" x2="152" y2="156" stroke="#1D7324" stroke-width="1.2" stroke-opacity="0.6"/>
  <line x1="172" y1="150" x2="172" y2="156" stroke="#1D7324" stroke-width="1.2" stroke-opacity="0.6"/>
  <ellipse cx="162" cy="156" rx="10" ry="4" fill="none" stroke="#1D7324" stroke-width="1.2" stroke-opacity="0.6"/>

  <!-- S3 block -->
  <rect x="120" y="88" width="36" height="30" rx="5"
        fill="#E3F2FD" stroke="#0073BB" stroke-width="1.4"/>
  <text x="138" y="100" font-family="monospace" font-size="7" fill="#0073BB" text-anchor="middle" font-weight="600">S3</text>
  <path d="M129 107 l9-5 9 5-9 5z" fill="none" stroke="#0073BB" stroke-width="1.1" stroke-opacity="0.7"/>

  <!-- Connector lines -->
  <line x1="138" y1="118" x2="120" y2="126" stroke="#C7CBD1" stroke-width="1" stroke-dasharray="3 2"/>
  <line x1="138" y1="118" x2="162" y2="126" stroke="#C7CBD1" stroke-width="1" stroke-dasharray="3 2"/>
  <line x1="132" y1="162" x2="148" y2="162" stroke="#C7CBD1" stroke-width="1"/>

  <!-- Orbit ring -->
  <ellipse cx="150" cy="148" rx="72" ry="28" fill="none"
           stroke="#FF9900" stroke-width="1" stroke-opacity="0.18" stroke-dasharray="4 3"/>

</svg>
